<?xml version="1.0" encoding="utf-8"?>
<svg version="1.1" id="backoffice" xmlns="http://www.w3.org/2000/svg" xmlns:xlink="http://www.w3.org/1999/xlink" x="0px" y="0px"
	 viewBox="0 0 512 512" enable-background="new 0 0 512 512" xml:space="preserve">
<g>
	<g>
		<g>
			<path d="M474.1,279.5c-32.4,0-64.8,0-97.2,0c-64.1,0-128.1,0-192.2,0c-46.1,0-92.1,0-138.2,0c-2.9,0-5.8,0-8.7,0
				c2.5,2.5,5,5,7.5,7.5c0-28.9,0-57.9,0-86.8c-2.5,2.5-5,5-7.5,7.5c32.4,0,64.8,0,97.2,0c64.1,0,128.1,0,192.2,0
				c46.1,0,92.1,0,138.2,0c2.9,0,5.8,0,8.7,0c-2.5-2.5-5-5-7.5-7.5c0,28.9,0,57.9,0,86.8c0,9.7,15,9.7,15,0c0-28.9,0-57.9,0-86.8
				c0-4.1-3.4-7.5-7.5-7.5c-32.4,0-64.8,0-97.2,0c-64.1,0-128.1,0-192.2,0c-46.1,0-92.1,0-138.2,0c-2.9,0-5.8,0-8.7,0
				c-4.1,0-7.5,3.4-7.5,7.5c0,28.9,0,57.9,0,86.8c0,4.1,3.4,7.5,7.5,7.5c32.4,0,64.8,0,97.2,0c64.1,0,128.1,0,192.2,0
				c46.1,0,92.1,0,138.2,0c2.9,0,5.8,0,8.7,0C483.8,294.5,483.8,279.5,474.1,279.5z"/>
		</g>
	</g>
	<g>
		<g>
			<path d="M30.4,265.3c0,47.1,0,94.2,0,141.3c0,21.8,0,43.5,0,65.3c0,20,16.8,33.7,36.3,30.8c16-2.4,24.2-17.9,24.2-32.6
				c0-53.9,0-107.9,0-161.8c0-7.1,0-14.2,0-21.3c0-9.7-15-9.7-15,0c0,49.7,0,99.5,0,149.2c0,10.3,0,20.6,0,30.9c0,1.9,0,3.8,0,5.8
				c0,7.9-5.9,14.7-13.9,15.4c-8.9,0.8-16.6-6.4-16.6-15.3c0-1.7,0-3.4,0-5.1c0-10,0-20,0-30.1c0-50.3,0-100.5,0-150.8
				c0-7.2,0-14.5,0-21.7C45.4,255.6,30.4,255.6,30.4,265.3L30.4,265.3z"/>
		</g>
	</g>
	<g>
		<g>
			<path d="M466.6,265.3c0,47.1,0,94.2,0,141.3c0,21.8,0,43.5,0,65.3c0,5.4-1.8,9.6-5.9,13.3c-7.3,6.6-19.9,2.5-23.4-6.2
				c-2.2-5.5-1.2-13.1-1.2-18.8c0-55.1,0-110.1,0-165.2c0-2.7,0-5.3,0-8c0-9.7-15-9.7-15,0c0,49.7,0,99.5,0,149.2
				c0,10.3,0,20.6,0,30.9c0,11.9,2.3,23.2,12.8,30.6c19.7,13.9,47.7-0.7,47.7-24.8c0-6,0-12,0-18c0-54.5,0-109,0-163.5
				c0-8.7,0-17.5,0-26.2C481.6,255.6,466.6,255.6,466.6,265.3L466.6,265.3z"/>
		</g>
	</g>
	<g>
		<g>
			<path d="M257,279.5c-48.1,0-96.3,0-144.4,0c-24.6,0-49.2,0-73.7,0c2.5,2.5,5,5,7.5,7.5c0-28.9,0-57.9,0-86.8
				c-2.5,2.5-5,5-7.5,7.5c48.1,0,96.3,0,144.4,0c24.6,0,49.2,0,73.7,0c-2.5-2.5-5-5-7.5-7.5c0,28.9,0,57.9,0,86.8c0,9.7,15,9.7,15,0
				c0-28.9,0-57.9,0-86.8c0-4.1-3.4-7.5-7.5-7.5c-48.1,0-96.3,0-144.4,0c-24.6,0-49.2,0-73.7,0c-4.1,0-7.5,3.4-7.5,7.5
				c0,28.9,0,57.9,0,86.8c0,4.1,3.4,7.5,7.5,7.5c48.1,0,96.3,0,144.4,0c24.6,0,49.2,0,73.7,0C266.7,294.5,266.7,279.5,257,279.5z"/>
		</g>
	</g>
	<g>
		<g>
			<path d="M474.1,279.5c-48.1,0-96.3,0-144.4,0c-24.6,0-49.2,0-73.7,0c2.5,2.5,5,5,7.5,7.5c0-28.9,0-57.9,0-86.8
				c-2.5,2.5-5,5-7.5,7.5c48.1,0,96.3,0,144.4,0c24.6,0,49.2,0,73.7,0c-2.5-2.5-5-5-7.5-7.5c0,28.9,0,57.9,0,86.8c0,9.7,15,9.7,15,0
				c0-28.9,0-57.9,0-86.8c0-4.1-3.4-7.5-7.5-7.5c-48.1,0-96.3,0-144.4,0c-24.6,0-49.2,0-73.7,0c-4.1,0-7.5,3.4-7.5,7.5
				c0,28.9,0,57.9,0,86.8c0,4.1,3.4,7.5,7.5,7.5c48.1,0,96.3,0,144.4,0c24.6,0,49.2,0,73.7,0C483.8,294.5,483.8,279.5,474.1,279.5z"
				/>
		</g>
	</g>
	<g>
		<g>
			<path d="M116.4,251.1c21,0,42,0,63.1,0c9.7,0,9.7-15,0-15c-21,0-42,0-63.1,0C106.8,236.1,106.8,251.1,116.4,251.1L116.4,251.1z"
				/>
		</g>
	</g>
	<g>
		<g>
			<path d="M333.5,251.1c21,0,42,0,63.1,0c9.7,0,9.7-15,0-15c-21,0-42,0-63.1,0C323.9,236.1,323.9,251.1,333.5,251.1L333.5,251.1z"
				/>
		</g>
	</g>
	<g>
		<g>
			<path d="M275.6,192.7c-13.1,0-26.2,0-39.3,0c2.5,2.5,5,5,7.5,7.5c0-19.6,0-39.3,0-58.9c-2.5,2.5-5,5-7.5,7.5
				c13.1,0,26.2,0,39.3,0c-2.5-2.5-5-5-7.5-7.5c0,19.6,0,39.3,0,58.9c0,9.7,15,9.7,15,0c0-19.6,0-39.3,0-58.9c0-4.1-3.4-7.5-7.5-7.5
				c-13.1,0-26.2,0-39.3,0c-4.1,0-7.5,3.4-7.5,7.5c0,19.6,0,39.3,0,58.9c0,4.1,3.4,7.5,7.5,7.5c13.1,0,26.2,0,39.3,0
				C285.3,207.7,285.3,192.7,275.6,192.7z"/>
		</g>
	</g>
	<g>
		<g>
			<path d="M351.3,133.8c-49.8,0-99.6,0-149.5,0c-10.7,0-21.4,0-32.1,0c-7.6,0-17.7,0-17.7-10.6c0-25.1,0-50.2,0-75.3
				c0-8.6-2.4-24.1,10.6-24.1c5.4,0,10.8,0,16.2,0c29.2,0,58.4,0,87.6,0c26,0,52.1,0,78.1,0c7.6,0,17.3,0.2,17.3,10.7
				c0,9.9,0,19.8,0,29.7c0,15.2,0,30.4,0,45.6C362,118.5,364.3,133.3,351.3,133.8c-9.6,0.4-9.7,15.4,0,15
				c12.2-0.4,22.9-8.7,25.2-20.9c0.7-3.6,0.5-7.4,0.5-11.1c0-14.3,0-28.7,0-43c0-12.5,0-25,0-37.5c0-15.2-10.6-27.6-26.3-27.6
				c-52.2,0-104.5,0-156.7,0c-9.2,0-18.4,0-27.6,0c-2.1,0-4.1,0-6.2,0.2c-12.9,1.4-21.5,11.6-22.9,24.1c-1,9.2,0,19.1,0,28.3
				c0,15.6,0,31.3,0,46.9c0,12.2-1.5,24.8,8.4,34c7.5,7,16.7,6.6,26,6.6c27,0,54,0,81,0c32.9,0,65.9,0,98.8,0
				C361,148.8,361,133.8,351.3,133.8z"/>
		</g>
	</g>
	<g>
		<g>
			<path d="M144.6,114.6c47.7,0,95.3,0,143,0c27.3,0,54.6,0,81.8,0c9.7,0,9.7-15,0-15c-47.7,0-95.3,0-143,0c-27.3,0-54.6,0-81.8,0
				C134.9,99.6,134.9,114.6,144.6,114.6L144.6,114.6z"/>
		</g>
	</g>
	<g>
		<g>
			<path d="M436.9,192.7c-10,0-20,0-30,0c2.5,2.5,5,5,7.5,7.5c0-6.8,0-13.6,0-20.3c0-2.9,0-5.7,0-8.6c0-4.3,3.6-5,7-5
				c3.6,0,7.7,0.1,7.9,4.8c0.1,2.6,0,5.2,0,7.8c0,7.1,0,14.2,0,21.2c0,9.7,15,9.7,15,0c0-8.4,0-16.8,0-25.2c0-4.9-0.4-9.3-2.7-13.8
				c-3.7-7.2-11.8-9.8-19.3-9.8c-7.1,0-13.7,1.4-18.4,7.2c-3.8,4.7-4.6,9.9-4.6,15.7c0,8.6,0,17.3,0,25.9c0,4.1,3.4,7.5,7.5,7.5
				c10,0,20,0,30,0C446.6,207.7,446.6,192.7,436.9,192.7z"/>
		</g>
	</g>
</g>
</svg>
