<svg xmlns="http://www.w3.org/2000/svg" id='logo' viewBox="0 0 357 320" preserveAspectRatio="xMidYMid meet">
                <g class="svg" transform="translate(0,320) scale(0.1,-0.1)">
                    <path d="M1465 2807c-836-425-985-503-982-510 1-5 74-42 161-84l158-75 182 92c369 188 691 353 701 360 6 4 33 18 62 30l51 22 234-110c128-61 265-124 303-142 39-17 126-58 195-91 69-32 133-59 142-59 18 0 301 154 305 166 2 5-88 51-199 103-112 52-239 111-283 132-198 94-706 329-709 329-1 0-145-74-321-163z"/>
                    <path d="M3000 2243c-52-30-144-84-205-118-60-34-162-93-225-130-63-37-149-86-190-110-41-23-133-76-205-117-71-42-164-95-205-118-41-24-104-61-139-83-36-22-74-39-85-39-12 0-64 20-116 45-52 25-129 60-170 79-72 34-215 100-758 354-134 63-248 111-253 108-5-3-9-250-9-584l0-578 98-53c53-29 124-67 157-84 138-72 1013-538 1044-556l34-20 216 124c215 125 414 239 821 475 118 69 232 134 252 146l38 21v168c0 92-3 167-6 167-4 0-43-22-88-49-73-44-182-107-366-212-36-20-168-96-295-169-379-219-417-241-498-287l-77-44-158 82c-86 45-161 85-167 89-5 4-71 39-145 78-74 39-173 91-220 117-47 25-132 70-190 99-58 30-115 62-128 72l-23 19 3 262 3 261 115-52c119-54 658-305 813-379 69-33 91-39 105-31 24 15 344 200 422 244 36 20 88 50 115 67 28 17 158 93 290 168 132 76 276 159 320 185 44 26 101 59 128 74l47 27v169c0 94-1 170-2 170-2-1-46-26-98-57z"/>
                </g>
                </svg> 