<?xml version="1.0" standalone="no"?>
<svg version="1.0" xmlns="http://www.w3.org/2000/svg"
 id="mundi" viewBox="0 0 1584 862"
 preserveAspectRatio="xMidYMid meet"
 style="width: 100%; height: 100%;">
<g transform="translate(0.000000,862.000000) scale(0.100000,-0.100000)"
 stroke="none">
<path fill='var(--one)' d="M5215 8309 c-208 -11 -434 -42 -490 -69 -11 -5 -63 -30 -116 -55 -96
-46 -98 -46 -250 -57 -182 -13 -284 -14 -322 -3 -20 5 -47 -1 -107 -26 l-80
-33 -30 22 c-37 28 -72 28 -146 -2 -34 -13 -82 -26 -107 -30 -25 -4 -56 -15
-69 -25 -19 -16 -20 -21 -9 -34 14 -18 69 -39 147 -56 38 -9 62 -9 100 0 27 6
108 12 179 13 122 2 134 4 195 32 148 69 337 114 481 114 129 0 199 -12 289
-51 96 -40 122 -38 234 21 103 54 173 82 251 99 28 6 86 21 130 32 88 23 113
25 128 10 15 -15 0 -29 -61 -57 -85 -38 -92 -41 -156 -55 -66 -14 -87 -30 -79
-58 8 -30 55 -41 179 -41 104 0 115 -2 140 -23 24 -21 28 -33 39 -143 7 -65
16 -137 20 -159 5 -34 2 -44 -19 -67 -14 -15 -39 -35 -56 -45 -43 -25 -53 -70
-35 -155 16 -76 45 -127 104 -183 54 -51 78 -64 122 -65 37 0 72 28 98 80 22
46 96 116 172 162 57 35 94 49 159 62 93 19 119 29 167 64 44 32 126 62 171
62 21 0 72 9 113 21 41 11 98 24 127 29 51 8 102 32 102 48 0 5 8 17 18 28 10
10 27 35 39 54 33 54 53 73 104 97 77 38 82 48 74 147 l-7 84 54 26 c41 19
174 56 204 56 13 0 1 53 -17 71 -19 19 -30 20 -132 17 -94 -2 -118 0 -152 16
-22 11 -76 23 -120 27 -118 11 -554 10 -675 -3 -137 -14 -324 -14 -425 0 -88
12 -447 12 -680 1z"/>
<path fill='var(--two)' d="M10870 8229 c1 -34 18 -53 79 -83 37 -19 75 -29 124 -33 71 -5 172
-28 192 -43 6 -4 24 -11 41 -14 33 -7 56 -28 67 -59 9 -25 -43 -54 -112 -63
-31 -3 -60 -10 -66 -14 -5 -4 -32 -10 -60 -12 -27 -3 -103 -24 -167 -46 -74
-27 -135 -42 -165 -42 -26 0 -67 -6 -91 -13 -76 -23 -81 -57 -19 -125 30 -32
48 -62 56 -95 13 -54 6 -76 -33 -96 -42 -23 -56 -2 -56 83 -1 67 -3 74 -45
136 -63 91 -154 182 -179 178 -37 -5 -33 -102 9 -193 7 -16 17 -42 20 -57 6
-25 4 -28 -16 -28 -13 0 -51 16 -83 36 -65 39 -73 39 -218 13 -101 -18 -176 9
-136 49 16 16 -4 38 -47 52 -34 11 -51 43 -39 74 4 9 39 33 79 52 69 34 99 44
185 63 121 28 145 45 120 91 -15 29 -51 34 -138 21 -87 -14 -158 -38 -250 -84
-98 -49 -141 -98 -156 -178 -9 -50 -1 -64 55 -99 43 -26 48 -33 39 -50 -5 -10
-14 -21 -18 -24 -12 -7 -145 -35 -225 -46 -79 -12 -93 -19 -162 -85 -28 -27
-58 -54 -66 -60 -20 -14 -79 -36 -111 -42 -25 -5 -28 -2 -28 21 0 14 9 35 21
47 21 21 115 69 136 69 16 0 31 29 26 50 -6 22 -27 32 -143 68 -335 103 -351
106 -459 98 -192 -15 -273 -33 -396 -90 -61 -29 -80 -49 -94 -101 -6 -22 -18
-50 -26 -63 -22 -31 -112 -89 -228 -148 -111 -55 -167 -97 -167 -123 0 -50 91
-161 132 -161 13 0 53 9 87 21 86 28 112 23 127 -21 7 -19 15 -47 19 -63 19
-89 128 -87 191 4 25 36 27 47 25 125 -2 113 15 150 114 248 72 72 111 96 134
82 21 -13 -4 -52 -81 -123 -27 -25 -22 -54 20 -114 44 -63 58 -65 157 -30 87
31 128 19 86 -25 -12 -13 -43 -26 -82 -33 -90 -17 -99 -20 -99 -37 0 -8 -4
-14 -10 -14 -5 0 -10 -6 -10 -14 0 -8 -13 -24 -30 -37 -22 -18 -32 -37 -40
-79 -6 -30 -13 -64 -15 -76 -7 -32 -132 -59 -236 -51 -110 9 -133 23 -181 116
-26 49 -63 80 -79 64 -6 -6 -15 -30 -20 -54 -16 -73 -28 -95 -68 -117 -64 -36
-140 -104 -166 -148 -26 -45 -52 -60 -85 -49 -22 7 -24 15 -20 103 2 59 0 65
-45 130 -56 82 -66 122 -58 224 l6 78 -30 0 c-17 0 -43 -4 -59 -9 -16 -5 -56
-17 -90 -27 -78 -22 -85 -28 -116 -94 -14 -31 -55 -93 -92 -139 -81 -100 -88
-117 -74 -168 42 -153 106 -151 188 4 18 34 41 65 51 68 27 9 59 -4 59 -23 0
-15 -38 -100 -50 -112 -49 -49 -30 -130 27 -115 15 3 50 18 78 31 58 30 110
26 120 -7 4 -11 4 -23 1 -27 -16 -15 -87 -32 -139 -32 -42 0 -59 -4 -63 -15
-11 -29 6 -62 56 -111 41 -40 50 -54 48 -78 -5 -45 -41 -64 -158 -82 -58 -9
-113 -20 -122 -25 -10 -5 -31 -9 -46 -9 -44 0 -67 -31 -57 -77 11 -49 11 -147
1 -195 -11 -49 7 -92 49 -116 68 -41 50 -136 -41 -223 -112 -107 -104 -93
-104 -180 0 -77 0 -78 -37 -108 -21 -17 -44 -31 -51 -31 -28 0 -113 -73 -157
-135 -25 -34 -45 -66 -45 -69 0 -4 -13 -26 -29 -49 -34 -50 -81 -142 -81 -158
0 -7 18 -48 39 -93 58 -121 57 -140 -4 -231 -74 -111 -75 -117 -24 -216 23
-46 59 -105 78 -131 19 -26 49 -82 65 -125 32 -79 38 -86 162 -180 16 -12 40
-31 53 -42 13 -11 46 -35 73 -53 55 -35 41 -36 163 16 49 21 76 26 146 26 73
0 93 4 135 26 110 58 129 66 185 77 69 12 89 2 89 -49 0 -18 8 -40 17 -50 30
-30 126 -66 193 -73 l65 -6 3 -53 c2 -35 -4 -71 -17 -105 -27 -73 -35 -136
-21 -172 6 -16 30 -55 54 -85 23 -30 55 -82 70 -115 121 -256 128 -337 44
-507 -80 -160 -59 -292 77 -493 l48 -70 -2 -148 c-2 -169 0 -176 74 -227 26
-18 51 -44 57 -58 17 -44 48 -172 48 -201 0 -38 27 -122 47 -143 23 -25 74
-23 141 8 31 14 73 32 92 41 19 8 43 19 52 24 10 5 25 9 34 9 17 0 146 49 154
59 3 3 24 19 48 35 97 66 198 211 233 336 16 55 27 67 76 84 58 20 90 104 80
207 -13 118 -11 122 153 289 81 83 153 164 160 181 14 33 3 106 -51 323 -16
66 -32 154 -35 196 -10 117 -9 118 228 360 46 47 96 102 112 123 16 20 44 54
63 75 19 20 51 62 71 92 19 30 39 57 44 58 4 2 8 8 8 14 0 5 14 29 31 54 79
115 110 215 92 299 -8 36 -12 40 -43 43 -19 1 -80 -7 -135 -18 -210 -45 -207
-45 -250 -25 -22 11 -47 27 -55 37 -37 42 -54 67 -86 125 -27 47 -58 81 -127
139 -110 90 -147 149 -147 231 0 51 -26 133 -42 133 -5 0 -8 4 -8 9 0 5 -15
42 -33 83 -54 118 -57 127 -57 168 0 36 3 40 24 40 17 0 35 -13 57 -42 18 -24
50 -61 70 -83 75 -80 91 -101 137 -170 25 -38 59 -87 75 -108 39 -51 112 -238
122 -312 8 -69 25 -114 49 -134 27 -22 116 -16 177 13 30 13 78 34 106 45 195
76 376 184 425 254 12 17 28 37 34 42 27 22 87 139 98 191 6 24 2 35 -18 55
-13 14 -35 30 -48 35 -13 6 -49 23 -81 37 -56 26 -106 34 -121 20 -18 -18 -89
-31 -115 -22 -14 5 -66 49 -114 97 -49 48 -108 107 -133 130 -45 45 -53 69
-32 90 25 25 77 14 136 -30 71 -53 128 -100 169 -141 31 -30 38 -32 125 -37
66 -4 106 -12 138 -27 104 -50 141 -56 251 -43 170 19 194 8 265 -128 61 -117
69 -122 181 -122 87 0 94 -2 88 -17 -4 -10 -12 -41 -17 -69 -13 -70 1 -114 61
-199 83 -117 104 -167 156 -380 15 -60 34 -120 42 -133 16 -25 27 -24 97 9 79
38 106 19 106 -74 0 -56 4 -70 26 -96 33 -40 59 -39 84 2 41 67 11 174 -69
247 l-50 45 13 50 c9 33 12 81 8 142 -7 125 6 155 110 264 46 48 111 118 145
155 69 76 117 103 199 111 68 7 103 -2 113 -30 31 -79 46 -114 56 -127 7 -8
24 -47 39 -87 51 -135 106 -183 152 -132 49 54 94 39 94 -32 0 -21 7 -64 15
-96 9 -34 15 -102 15 -170 0 -136 6 -154 90 -253 86 -103 95 -122 75 -160 -25
-48 -54 -40 -127 36 -66 69 -98 88 -129 79 -25 -8 -24 -22 6 -75 14 -25 47
-88 74 -140 27 -52 59 -114 72 -137 25 -48 142 -207 173 -238 12 -11 34 -38
50 -60 48 -66 128 -136 186 -162 75 -34 220 -70 316 -78 84 -7 225 -38 280
-61 145 -61 366 -55 435 12 29 28 40 76 19 89 -5 3 -38 -3 -72 -14 -68 -21
-210 -51 -244 -51 -12 0 -47 11 -78 25 -31 14 -72 25 -91 25 -18 0 -46 5 -61
10 -15 6 -52 15 -83 20 -76 12 -138 28 -181 47 -31 14 -50 22 -125 53 -11 4
-41 16 -68 25 -61 22 -72 41 -58 106 6 28 11 72 11 100 0 44 -3 51 -31 68 -17
10 -50 24 -74 31 -45 13 -65 39 -65 85 0 18 5 25 20 25 25 0 34 35 27 107 -6
58 -54 151 -104 202 -42 43 -114 150 -139 207 -20 45 -24 70 -22 123 3 59 5
66 25 69 36 5 80 -25 179 -124 107 -105 120 -110 189 -69 45 26 125 111 125
132 0 7 5 21 11 31 17 27 -33 126 -115 231 -82 103 -136 194 -136 227 0 28 34
63 61 64 9 0 22 7 29 15 7 8 23 15 36 15 29 0 39 -32 30 -90 -5 -29 -1 -51 16
-85 12 -25 28 -45 35 -45 7 0 17 19 24 43 6 23 15 50 20 59 5 10 9 26 9 37 0
26 46 69 100 93 162 74 197 93 230 126 21 20 40 47 44 60 4 12 24 59 45 105
45 99 65 168 58 199 -10 38 -116 202 -173 268 -17 19 -36 49 -43 67 -11 28
-11 35 3 48 37 37 38 52 5 79 -35 29 -72 33 -140 13 -24 -7 -52 -11 -61 -9
-27 5 -33 46 -11 83 25 45 61 101 73 117 14 16 50 15 50 -1 0 -20 28 -73 46
-88 12 -10 22 -10 48 -1 60 22 84 15 150 -40 69 -58 126 -118 126 -134 0 -16
37 -89 52 -101 12 -11 41 -17 64 -14 17 2 54 76 54 109 0 25 -11 40 -57 79
-31 26 -75 64 -96 84 l-39 35 16 32 c9 17 16 50 16 74 0 82 14 94 133 119 60
13 97 43 97 78 0 10 5 22 12 29 8 8 12 51 12 124 l1 113 -43 79 c-23 43 -40
81 -38 84 8 7 48 -6 82 -27 59 -36 138 -209 188 -411 32 -126 37 -139 80 -180
59 -56 70 -84 56 -139 -30 -114 -58 -149 -148 -185 -122 -49 -135 -58 -164
-111 -16 -27 -33 -67 -40 -89 -11 -37 -11 -40 15 -62 15 -13 46 -29 68 -36
l41 -12 40 45 c70 79 82 89 142 120 41 20 85 33 140 40 44 6 83 12 88 15 14 9
9 29 -18 80 -34 64 -51 116 -63 194 -5 36 -17 93 -27 127 -18 62 -18 63 1 78
11 8 36 20 55 26 19 7 37 15 40 18 3 3 14 11 24 17 23 12 41 58 32 80 -7 17
-3 17 -141 -6 -45 -7 -83 -9 -105 -3 -31 8 -37 17 -78 108 -24 55 -50 118 -57
140 -32 106 -58 142 -183 251 -68 59 -89 72 -115 71 -18 0 -60 4 -93 10 -35 7
-103 9 -157 6 -91 -6 -95 -5 -102 16 -6 20 9 84 25 106 4 6 11 27 14 49 15 83
84 149 138 131 13 -4 52 -11 88 -16 100 -13 172 -26 210 -38 60 -19 67 -16 79
39 6 28 11 68 11 89 0 61 43 68 127 20 62 -36 83 -33 83 12 0 35 34 73 58 64
7 -3 19 -5 27 -5 7 0 18 -13 25 -29 10 -25 9 -36 -8 -73 -11 -23 -34 -58 -51
-77 -26 -29 -31 -42 -31 -86 0 -50 2 -54 53 -100 28 -27 97 -91 153 -142 110
-104 157 -138 175 -128 7 5 9 37 4 104 -9 143 -19 172 -83 238 -64 68 -108
130 -98 141 4 4 55 7 112 7 l104 0 49 53 48 52 64 0 c35 0 71 5 79 10 23 15
-6 60 -55 85 -22 11 -53 32 -69 47 l-30 27 28 10 c40 16 43 15 192 -34 75 -25
140 -43 145 -39 12 7 11 30 -1 74 -11 40 -37 53 -125 65 -57 7 -53 6 -284 80
-156 50 -262 76 -389 94 -52 7 -57 21 -15 41 18 8 33 22 33 31 0 21 -28 46
-62 54 -37 9 -73 -27 -81 -82 l-7 -41 -76 -7 c-41 -4 -121 -4 -177 -1 -107 7
-327 35 -339 42 -13 9 -252 34 -318 34 -67 0 -125 13 -220 49 -30 12 -78 21
-107 21 -83 0 -128 23 -162 84 -60 104 -102 119 -294 105 -62 -4 -118 -8 -125
-8 -9 -1 -12 -11 -10 -28 3 -25 17 -35 125 -88 67 -33 129 -69 137 -80 14 -18
13 -22 -5 -37 -17 -15 -41 -18 -129 -18 -60 0 -119 4 -132 9 -13 5 -44 27 -69
50 -24 23 -55 44 -68 48 -14 3 -36 12 -50 19 -20 11 -85 14 -263 14 -289 0
-319 6 -362 69 -17 24 -41 56 -53 70 l-21 26 -189 0 -188 0 -70 39 c-205 114
-275 136 -492 153 -72 5 -73 5 -73 -18z m-1333 -1815 c3 -9 1 -45 -6 -80 -15
-71 -9 -100 21 -110 41 -13 169 -98 189 -125 43 -60 9 -79 -105 -60 -171 29
-236 35 -306 32 -41 -2 -127 -4 -190 -5 l-115 -1 -3 28 c-2 16 3 36 12 46 20
22 66 134 66 159 0 11 7 33 16 50 13 27 21 32 50 32 29 0 45 -10 96 -60 34
-33 69 -60 78 -60 8 0 38 31 65 69 66 91 117 123 132 85z m753 -38 c0 -12 -26
-51 -60 -89 -84 -95 -82 -131 15 -257 24 -30 53 -66 65 -79 24 -25 90 -130 90
-143 0 -44 -230 -12 -262 36 -4 6 -8 43 -8 83 0 76 -8 98 -72 191 -16 24 -34
57 -39 75 -14 46 -1 124 25 150 44 45 59 52 135 57 96 6 111 3 111 -24z
m-1866 -73 c44 -25 99 -55 121 -67 22 -12 42 -24 43 -28 2 -5 9 -8 15 -8 19 0
55 -60 77 -129 25 -79 25 -88 0 -129 -24 -40 -18 -52 42 -83 24 -12 45 -34 59
-60 l21 -41 60 4 c87 6 95 31 37 115 -16 23 -29 50 -29 61 0 22 33 47 74 58
22 5 27 2 37 -22 7 -16 15 -47 20 -69 16 -85 29 -120 46 -133 14 -11 54 -13
193 -9 124 3 180 2 191 -7 25 -18 52 -102 46 -141 -3 -19 -19 -63 -36 -99 -17
-35 -31 -69 -31 -75 0 -24 -50 -31 -154 -21 -198 19 -260 30 -361 65 -57 19
-118 35 -136 35 -43 0 -69 -25 -69 -66 0 -18 -3 -39 -6 -48 -7 -18 -45 -21
-72 -7 -9 5 -48 19 -87 31 -104 33 -267 109 -294 139 -22 24 -23 30 -17 106 9
123 13 120 -183 120 -115 0 -164 -4 -173 -12 -6 -7 -20 -13 -30 -13 -10 0 -18
-4 -18 -9 0 -11 -191 -78 -248 -86 -61 -10 -136 3 -162 27 -21 19 -21 21 -3
40 24 27 51 37 162 59 51 11 98 22 103 25 9 6 7 41 -7 110 -6 26 -2 34 28 57
20 15 40 27 45 27 5 0 17 16 28 35 10 19 22 35 26 35 5 0 8 6 8 14 0 26 74 65
125 66 11 0 56 9 100 20 l79 20 61 -37 c33 -20 92 -67 132 -104 40 -38 93 -77
118 -89 71 -32 57 -69 -44 -114 -50 -23 -54 -50 -13 -88 39 -38 62 -39 81 -3
11 19 40 42 76 61 64 33 68 43 50 116 -7 26 -6 27 29 21 32 -5 36 -3 36 16 0
29 -30 58 -120 116 -41 27 -77 52 -80 55 -3 4 -12 10 -20 13 -72 33 -110 83
-110 145 0 28 3 32 26 32 14 0 63 -21 108 -47z"/>
<path fill='var(--three)' d="M4419 8030 c-50 -15 -154 -79 -194 -120 -37 -38 -41 -40 -85 -34 -51
7 -122 -18 -155 -55 -19 -22 -19 -23 0 -57 10 -18 22 -34 27 -34 13 0 9 -46
-4 -58 -7 -5 -29 -13 -48 -17 -19 -4 -53 -18 -75 -31 -55 -31 -145 -42 -168
-20 -24 24 -12 41 48 66 58 24 62 29 76 103 5 27 18 61 30 75 l21 27 -42 3
c-24 2 -48 -2 -53 -7 -14 -14 -201 -15 -225 -1 -9 5 -35 17 -57 26 -22 10 -42
21 -45 25 -17 22 -82 42 -135 43 -59 1 -145 -26 -145 -46 0 -4 -6 -8 -12 -8
-17 0 -83 -59 -97 -86 -16 -33 10 -49 81 -49 65 0 88 -16 88 -63 0 -25 33 -62
56 -62 16 0 45 -40 38 -52 -11 -17 -74 -8 -92 13 -9 11 -36 32 -59 46 -37 21
-61 26 -175 34 -73 4 -165 14 -205 20 -88 14 -182 1 -313 -42 -47 -16 -94 -29
-105 -29 -22 0 -69 12 -210 55 -147 45 -213 55 -345 55 -125 -1 -144 -4 -330
-54 -267 -71 -290 -82 -290 -142 0 -18 -4 -35 -9 -38 -5 -3 -62 -8 -127 -12
-122 -5 -210 -20 -219 -35 -3 -4 11 -26 31 -49 43 -48 40 -70 -11 -70 -68 0
-153 -31 -205 -76 -28 -24 -64 -52 -80 -64 -17 -12 -30 -27 -30 -33 0 -12 114
-57 144 -57 9 0 16 -4 16 -9 0 -5 9 -13 20 -16 11 -3 20 -12 20 -20 0 -13 -32
-26 -95 -40 -34 -7 -162 -52 -187 -66 -10 -5 -23 -9 -30 -9 -7 0 -91 -25 -186
-56 -147 -48 -178 -62 -212 -94 -51 -48 -54 -75 -7 -66 59 11 419 127 621 200
112 40 158 45 178 18 22 -30 36 -34 70 -16 69 34 137 95 170 149 38 63 51 70
108 55 42 -11 84 -5 163 26 47 18 124 18 159 0 15 -8 42 -17 60 -21 69 -14
117 -40 135 -72 17 -32 17 -34 -1 -68 -11 -19 -23 -35 -28 -35 -4 0 -8 -38 -8
-84 l0 -84 -35 -21 c-41 -24 -51 -71 -15 -71 22 0 70 37 70 55 0 6 13 26 28
45 21 24 33 32 46 27 22 -9 17 -44 -14 -109 -11 -23 -20 -47 -20 -53 0 -7 -11
-24 -25 -39 -32 -34 -32 -57 1 -96 25 -29 26 -36 21 -100 -6 -68 -15 -96 -40
-122 -7 -7 -33 -40 -59 -73 -25 -33 -58 -73 -73 -90 -28 -32 -59 -92 -70 -140
-12 -45 -13 -327 -2 -352 5 -12 34 -33 63 -47 l54 -26 0 -58 c0 -84 18 -170
46 -218 15 -25 24 -56 24 -83 0 -28 8 -54 25 -79 20 -29 25 -49 25 -94 0 -56
1 -58 39 -82 78 -49 115 -43 86 14 -20 39 -85 222 -97 275 -17 72 -27 160 -21
183 6 25 34 29 56 8 8 -8 17 -38 20 -66 4 -29 20 -80 37 -114 16 -35 30 -70
30 -79 0 -9 5 -19 10 -22 6 -3 10 -15 10 -25 0 -27 56 -120 94 -155 69 -65 73
-84 50 -232 -9 -59 17 -91 113 -139 43 -21 101 -55 128 -74 93 -67 123 -80
179 -80 30 0 70 7 89 15 50 21 64 19 90 -12 45 -54 113 -120 132 -130 11 -6
40 -14 65 -18 78 -13 95 -27 110 -91 22 -92 44 -116 153 -165 26 -12 70 -42
98 -67 l50 -45 75 7 74 7 11 -28 c6 -16 9 -69 7 -123 -4 -92 -5 -97 -45 -156
-23 -33 -57 -73 -77 -88 -39 -29 -66 -73 -66 -106 0 -12 9 -40 20 -62 25 -53
25 -84 0 -133 -34 -67 -28 -93 49 -197 39 -51 75 -98 80 -105 6 -7 11 -15 11
-18 0 -3 11 -23 25 -45 14 -22 25 -45 25 -52 0 -7 6 -24 13 -38 7 -14 21 -47
32 -75 32 -86 107 -185 140 -185 8 0 15 -4 15 -8 0 -5 38 -26 85 -47 96 -42
124 -67 157 -133 22 -46 22 -51 20 -398 -3 -336 -2 -356 19 -440 17 -69 22
-114 21 -199 -2 -93 2 -123 23 -190 14 -44 28 -111 31 -148 5 -65 7 -69 44
-92 46 -29 53 -46 40 -100 -14 -59 -12 -118 5 -142 8 -11 18 -47 21 -79 4 -33
13 -72 22 -89 19 -40 77 -92 149 -135 32 -19 81 -51 110 -72 33 -24 63 -38 82
-38 l30 0 -6 -50 c-6 -50 -6 -50 30 -65 40 -17 282 -22 291 -6 9 13 -28 54
-65 73 -19 10 -60 28 -91 42 -42 18 -61 33 -69 53 -7 15 -25 56 -40 89 -29 61
-37 118 -20 128 5 3 12 22 15 41 7 38 -17 95 -40 95 -7 0 -22 12 -34 27 -28
36 -22 79 20 146 33 53 39 107 15 127 -24 20 -18 34 26 55 27 13 49 34 63 60
18 32 38 48 99 78 62 32 78 45 87 71 11 34 2 78 -26 132 -25 46 -14 64 40 64
87 0 154 53 181 141 8 30 27 74 40 99 71 129 79 152 83 248 4 91 5 93 37 117
17 14 37 25 44 25 19 0 159 50 216 76 72 34 84 46 107 106 40 105 48 156 49
311 0 182 3 188 125 326 90 102 104 133 104 237 0 110 -39 154 -153 170 -44 6
-77 24 -77 43 0 5 -11 19 -25 33 -21 21 -41 27 -132 38 -79 9 -116 18 -138 34
-80 56 -127 76 -195 83 -30 3 -61 10 -68 16 -17 13 -42 73 -42 99 0 59 -112
208 -156 208 -8 0 -14 5 -14 10 0 6 -4 10 -10 10 -5 0 -33 11 -62 24 -29 13
-71 30 -92 36 -92 29 -128 65 -171 176 -35 88 -57 118 -96 134 -28 12 -44 10
-140 -14 -107 -28 -110 -28 -162 -11 -28 9 -69 27 -89 41 -21 13 -40 24 -42
24 -3 0 -30 11 -60 25 -90 41 -156 28 -226 -44 -75 -77 -150 -133 -187 -138
-72 -9 -178 12 -228 47 -77 53 -80 63 -65 195 10 88 10 117 1 128 -12 15 -67
32 -140 43 -27 4 -54 16 -68 30 l-24 24 22 42 c12 24 39 68 60 98 46 68 55
103 32 125 -33 34 -164 -11 -194 -66 -22 -42 -105 -121 -146 -140 -51 -23 -44
-23 -92 -2 -47 20 -68 54 -111 175 -24 70 -30 102 -30 171 0 77 3 91 35 153
52 103 105 155 213 210 35 18 63 24 113 24 39 0 83 7 105 16 54 23 231 22 299
-1 81 -28 95 -46 95 -129 0 -65 3 -75 31 -109 17 -21 48 -47 70 -57 21 -11 39
-24 39 -29 0 -23 -44 -60 -83 -70 -95 -22 -114 -29 -140 -46 -15 -9 -27 -23
-27 -30 0 -17 62 -33 154 -40 44 -3 93 -13 109 -21 l30 -16 -7 -72 c-5 -60 -4
-75 9 -86 10 -9 75 -18 173 -26 86 -7 220 -18 297 -24 146 -11 234 -23 273
-35 18 -6 22 -4 22 12 0 11 -8 29 -18 41 -15 16 -38 22 -131 31 -119 12 -166
25 -271 73 -36 17 -101 42 -144 55 -44 14 -89 34 -100 44 -11 11 -23 19 -26
19 -12 0 -30 74 -45 181 -9 67 -22 119 -34 140 -33 55 -49 91 -67 151 -16 53
-16 59 -1 100 13 33 30 52 75 81 168 112 231 171 298 274 59 92 92 124 163
163 25 14 57 35 71 48 14 12 28 22 33 22 16 0 82 51 170 132 141 130 154 136
206 92 29 -24 37 -26 109 -22 61 3 91 10 147 36 71 34 125 76 125 98 0 17 -31
23 -86 16 -78 -8 -123 25 -115 86 1 8 -6 23 -16 34 -14 16 -25 18 -60 13 -36
-5 -43 -3 -53 15 -10 18 -7 25 20 50 31 29 81 45 115 38 18 -3 29 -17 39 -50
4 -14 16 -18 48 -18 33 0 60 11 118 45 75 46 124 57 148 33 22 -22 12 -47 -38
-90 -27 -24 -50 -46 -50 -49 0 -9 192 -79 217 -79 11 0 30 11 43 25 23 24 23
28 11 68 -36 119 -41 147 -41 210 0 78 -16 124 -60 169 -53 56 -70 99 -70 178
0 116 -21 133 -100 80 -25 -16 -50 -30 -57 -30 -6 0 -13 -6 -15 -12 -4 -10
-10 -10 -31 -1 -23 11 -27 19 -27 56 0 40 -5 48 -59 100 -33 31 -68 57 -79 57
-12 0 -24 5 -27 10 -3 6 -39 10 -78 10 -85 0 -110 -16 -146 -95 -13 -27 -32
-67 -43 -88 -17 -33 -19 -49 -13 -113 l7 -74 -43 -40 c-24 -22 -49 -40 -56
-40 -7 0 -13 -4 -13 -9 0 -5 -10 -11 -23 -15 -35 -8 -104 -73 -134 -124 -35
-60 -47 -72 -72 -72 -31 0 -36 18 -33 118 2 62 -1 98 -9 108 -19 24 -69 41
-152 53 -43 6 -87 16 -97 21 -30 16 -52 66 -57 132 -6 57 -5 59 31 93 21 19
41 35 46 35 5 0 44 20 86 45 41 25 78 45 80 45 2 0 21 10 42 23 37 23 132 57
159 57 25 0 71 -32 82 -57 15 -33 42 -28 68 12 21 31 68 55 111 55 19 0 24 23
12 55 -9 25 -7 32 17 57 14 15 33 28 40 28 7 0 13 5 13 10 0 6 5 10 12 10 6 0
26 17 44 38 18 21 52 46 76 56 23 10 60 27 81 38 49 26 91 21 95 -11 2 -13 -1
-28 -7 -34 -13 -13 -15 -87 -2 -87 5 0 30 9 55 20 49 20 60 12 33 -24 -15 -21
-147 -66 -193 -66 -35 0 -57 -20 -49 -42 8 -21 84 -67 138 -83 30 -9 68 -32
99 -60 69 -62 97 -61 157 4 25 26 55 51 66 54 81 22 243 90 257 108 17 20 17
23 1 50 -10 16 -34 43 -55 60 -21 16 -45 43 -53 60 -14 26 -14 35 -1 79 18 60
13 78 -23 86 -14 3 -48 10 -76 16 -27 5 -69 20 -93 31 -39 20 -58 22 -186 20
-92 -1 -164 -7 -203 -17 -34 -9 -81 -16 -105 -16 -37 0 -46 -4 -60 -27 -9 -16
-19 -49 -23 -75 -8 -55 -35 -78 -89 -78 -38 0 -72 32 -95 89 -17 40 -6 54 60
76 77 26 100 63 63 100 -24 23 -10 30 54 28 438 -15 453 -15 473 3 25 23 24
43 -3 48 -93 18 -355 47 -408 45 -14 0 -37 -4 -51 -9z"/>
<path fill='var(--four)' d="M15288 2827 c-42 -35 -78 -153 -78 -256 0 -67 -19 -116 -47 -125 -29
-9 -88 9 -126 38 -51 39 -71 87 -75 181 -4 121 -5 121 -59 133 -80 18 -208 24
-251 12 -48 -12 -87 -55 -102 -110 l-11 -40 -77 -1 c-125 -1 -157 -20 -256
-153 -30 -39 -66 -83 -82 -97 -38 -34 -130 -89 -149 -89 -8 0 -15 -4 -15 -8 0
-9 -111 -28 -209 -37 -76 -6 -131 -30 -149 -65 -13 -26 -8 -132 8 -174 24 -63
33 -137 21 -178 -19 -67 -53 -150 -77 -188 -34 -56 -38 -92 -16 -142 11 -24
27 -60 36 -81 13 -33 19 -38 38 -32 83 22 106 28 128 36 39 14 323 63 450 79
41 5 91 14 110 19 53 16 215 14 249 -4 30 -15 48 -50 53 -100 3 -26 9 -32 48
-44 55 -17 60 -23 60 -86 0 -70 17 -97 68 -114 30 -9 50 -24 65 -47 23 -35 61
-54 107 -54 32 0 60 -28 60 -59 0 -16 -11 -27 -37 -39 -84 -38 -150 -99 -130
-118 14 -14 200 60 249 99 12 9 22 41 29 92 11 71 16 82 58 130 25 28 60 60
77 71 41 25 117 91 212 184 123 120 156 163 208 271 19 38 24 65 24 121 0 90
-21 158 -80 261 -76 133 -115 221 -138 312 -35 143 -65 265 -72 299 -10 49
-38 87 -77 103 -24 9 -34 9 -45 0z"/>
</g>
</svg>
