<svg xmlns="http://www.w3.org/2000/svg" id="user-list" viewBox="0 0 96 96"><g><path d="M79.78,93.75H30.31a.75.75,0,0,1-.75-.75V3a.75.75,0,0,1,.75-.75H79.78A4.75,4.75,0,0,1,84.53,7V89A4.75,4.75,0,0,1,79.78,93.75Zm-48.72-1.5H79.78A3.26,3.26,0,0,0,83,89V7a3.26,3.26,0,0,0-3.25-3.25H31.06Z"/><path d="M30.3,93.75H17.87A4.75,4.75,0,0,1,13.12,89V7a4.75,4.75,0,0,1,4.75-4.75H30.3a.76.76,0,0,1,.75.75V93A.76.76,0,0,1,30.3,93.75Zm-12.43-90A3.25,3.25,0,0,0,14.62,7V89a3.25,3.25,0,0,0,3.25,3.25H29.55V3.75Z"/><path d="M58.34,45.86h-2c-4.14,0-7.7,0-9.73-2A6.28,6.28,0,0,1,45,39.13a12,12,0,0,1,6-10.37A.74.74,0,0,1,52,29a.75.75,0,0,1-.27,1,10.54,10.54,0,0,0-5.21,9.07,4.92,4.92,0,0,0,1.18,3.64c1.59,1.6,4.87,1.59,8.67,1.59H57.7c3.8,0,7.08,0,8.68-1.59a4.92,4.92,0,0,0,1.17-3.64,10.54,10.54,0,0,0-5.22-9.07.77.77,0,0,1-.27-1,.75.75,0,0,1,1-.27,12,12,0,0,1,6,10.37,6.28,6.28,0,0,1-1.61,4.7C65.51,45.76,62.2,45.86,58.34,45.86Z"/><path d="M72.48,61.29H41.6a.75.75,0,0,1,0-1.5H72.48a.75.75,0,0,1,0,1.5Z"/><path d="M72.48,69.58H41.6a.75.75,0,0,1,0-1.5H72.48a.75.75,0,0,1,0,1.5Z"/><path d="M72.48,77.88H41.6a.75.75,0,1,1,0-1.5H72.48a.75.75,0,1,1,0,1.5Z"/><path d="M86.58,22.7h-2.8A.75.75,0,0,1,83,22V10.53a.75.75,0,0,1,.75-.75h2.8a1.75,1.75,0,0,1,1.75,1.75V21A1.75,1.75,0,0,1,86.58,22.7Zm-2-1.5h2a.25.25,0,0,0,.25-.25V11.53a.25.25,0,0,0-.25-.25h-2Z"/><path d="M86.58,41.46h-2.8a.76.76,0,0,1-.75-.75V29.28a.76.76,0,0,1,.75-.75h2.8a1.76,1.76,0,0,1,1.75,1.75v9.43A1.76,1.76,0,0,1,86.58,41.46Zm-2-1.5h2a.25.25,0,0,0,.25-.25V30.28a.25.25,0,0,0-.25-.25h-2Z"/><path d="M86.58,60.21h-2.8a.75.75,0,0,1-.75-.75V48a.75.75,0,0,1,.75-.75h2.8A1.75,1.75,0,0,1,88.33,49v9.42A1.75,1.75,0,0,1,86.58,60.21Zm-2-1.5h2a.25.25,0,0,0,.25-.25V49a.25.25,0,0,0-.25-.25h-2Z"/><path d="M57,34.17c-4.39,0-7.92-5.41-7.92-9.88a7.93,7.93,0,1,1,15.85,0C65,28.76,61.43,34.17,57,34.17Zm0-16.31a6.43,6.43,0,0,0-6.42,6.43c0,3.69,3,8.38,6.42,8.38s6.43-4.69,6.43-8.38A6.44,6.44,0,0,0,57,17.86Z"/><path d="M13.87,21.18A6.19,6.19,0,1,1,20.06,15a.75.75,0,0,1-1.5,0,4.7,4.7,0,1,0-4.69,4.69.75.75,0,0,1,0,1.5Z"/><path d="M13.87,37.92a6.2,6.2,0,1,1,6.19-6.19.75.75,0,0,1-1.5,0,4.7,4.7,0,1,0-4.69,4.69.75.75,0,0,1,0,1.5Z"/><path d="M13.87,54.66a6.2,6.2,0,1,1,6.19-6.2.75.75,0,0,1-1.5,0,4.7,4.7,0,1,0-4.69,4.7.75.75,0,1,1,0,1.5Z"/><path d="M13.87,71.4a6.2,6.2,0,1,1,6.19-6.2.75.75,0,0,1-1.5,0,4.7,4.7,0,1,0-4.69,4.7.75.75,0,1,1,0,1.5Z"/><path d="M13.87,88.13a6.2,6.2,0,1,1,6.19-6.19.75.75,0,0,1-1.5,0,4.7,4.7,0,1,0-4.69,4.69.75.75,0,1,1,0,1.5Z"/></g></svg>